<svg width="89" height="19" viewBox="0 0 89 19" fill="none" xmlns="http://www.w3.org/2000/svg">
<path d="M6.69596 2.59197C7.75196 2.59197 8.66396 2.70397 9.43196 2.92797C10.2 3.13597 10.864 3.39197 11.424 3.69597L10.608 6.35997C9.98396 6.03997 9.35196 5.79197 8.71196 5.61597C8.08796 5.42397 7.48796 5.32797 6.91196 5.32797C6.17596 5.32797 5.61596 5.46397 5.23196 5.73597C4.84796 6.00797 4.65596 6.36797 4.65596 6.81597C4.65596 7.32797 4.83996 7.70397 5.20796 7.94397C5.57596 8.16797 6.14396 8.40797 6.91196 8.66397L8.32796 9.11997C8.88796 9.31197 9.40796 9.55197 9.88796 9.83997C10.368 10.112 10.776 10.432 11.112 10.8C11.464 11.168 11.736 11.584 11.928 12.048C12.12 12.512 12.216 13.016 12.216 13.56C12.216 14.2 12.096 14.808 11.856 15.384C11.616 15.944 11.248 16.44 10.752 16.872C10.272 17.304 9.65596 17.648 8.90396 17.904C8.16796 18.144 7.29596 18.264 6.28796 18.264C5.34396 18.264 4.43996 18.168 3.57596 17.976C2.72796 17.768 1.94396 17.48 1.22396 17.112L2.03996 14.448C2.72796 14.784 3.39996 15.048 4.05596 15.24C4.71196 15.432 5.39996 15.528 6.11996 15.528C6.96796 15.528 7.57596 15.392 7.94396 15.12C8.32796 14.832 8.51996 14.448 8.51996 13.968C8.51996 13.808 8.48796 13.648 8.42396 13.488C8.35996 13.328 8.23196 13.168 8.03996 13.008C7.86396 12.848 7.60796 12.696 7.27196 12.552C6.95196 12.392 6.53596 12.232 6.02396 12.072L4.84796 11.664C4.28796 11.456 3.76796 11.224 3.28796 10.968C2.80796 10.712 2.39196 10.408 2.03996 10.056C1.70396 9.70397 1.43996 9.29597 1.24796 8.83197C1.05596 8.36797 0.959961 7.81597 0.959961 7.17597C0.959961 6.51997 1.07996 5.91197 1.31996 5.35197C1.57596 4.79197 1.94396 4.31197 2.42396 3.91197C2.91996 3.49597 3.51996 3.17597 4.22396 2.95197C4.94396 2.71197 5.76796 2.59197 6.69596 2.59197Z" fill="white"/>
<path d="M18.093 14.256V18H14.565V0.839971H18.093V10.848L21.693 6.47997H25.989L21.645 11.328L26.181 18H22.005L18.957 13.368L18.093 14.256Z" fill="white"/>
<path d="M27.9294 18V6.47997H31.4814V18H27.9294ZM29.7054 4.22397C29.0974 4.22397 28.6334 4.05597 28.3134 3.71997C27.9934 3.36797 27.8334 2.95197 27.8334 2.47197C27.8334 1.99197 27.9934 1.58397 28.3134 1.24797C28.6494 0.895971 29.1134 0.719971 29.7054 0.719971C30.2974 0.719971 30.7534 0.88797 31.0734 1.22397C31.4094 1.55997 31.5774 1.97597 31.5774 2.47197C31.5774 2.96797 31.4174 3.38397 31.0974 3.71997C30.7774 4.05597 30.3134 4.22397 29.7054 4.22397Z" fill="white"/>
<path d="M34.6046 18V0.839971H38.1086V18H34.6046Z" fill="white"/>
<path d="M41.0499 18V0.839971H44.5539V18H41.0499Z" fill="white"/>
<path d="M47.6152 18V2.88003H51.2632V8.76003H56.5192V2.88003H60.1672V18H56.5192V11.592H51.2632V18H47.6152Z" fill="#773FFF"/>
<path d="M70.4698 6.48003H74.0218V18H71.4058L71.0458 16.752H70.9498C70.7898 16.912 70.5978 17.08 70.3738 17.256C70.1498 17.432 69.8778 17.6 69.5578 17.76C69.2538 17.904 68.9018 18.024 68.5018 18.12C68.1018 18.216 67.6458 18.264 67.1338 18.264C65.8858 18.264 64.9098 17.92 64.2058 17.232C63.5018 16.544 63.1498 15.528 63.1498 14.184V6.48003H66.7018V13.896C66.7018 14.488 66.8458 14.928 67.1338 15.216C67.4378 15.488 67.8218 15.624 68.2858 15.624C68.8458 15.624 69.3018 15.512 69.6538 15.288C70.0218 15.048 70.2938 14.8 70.4698 14.544V6.48003Z" fill="#773FFF"/>
<path d="M88.4779 12.288C88.4779 13.216 88.3339 14.048 88.0459 14.784C87.7739 15.52 87.3899 16.152 86.8939 16.68C86.4139 17.192 85.8379 17.584 85.1659 17.856C84.5099 18.128 83.7899 18.264 83.0059 18.264C82.2539 18.264 81.6139 18.152 81.0859 17.928C80.5579 17.688 80.1099 17.36 79.7419 16.944H79.6459L79.4299 18H76.8619V0.840027H80.3899V7.27203C80.7579 6.96803 81.1899 6.72003 81.6859 6.52803C82.1819 6.32003 82.7339 6.21603 83.3419 6.21603C84.9419 6.21603 86.1979 6.75203 87.1099 7.82403C88.0219 8.88003 88.4779 10.368 88.4779 12.288ZM84.8299 12.384C84.8299 11.216 84.6059 10.344 84.1579 9.76803C83.7099 9.19203 83.0779 8.90403 82.2619 8.90403C81.8779 8.90403 81.5099 9.00803 81.1579 9.21603C80.8219 9.40803 80.5739 9.60003 80.4139 9.79203V14.976C80.5899 15.184 80.8219 15.352 81.1099 15.48C81.3979 15.608 81.7019 15.672 82.0219 15.672C82.3899 15.672 82.7419 15.608 83.0779 15.48C83.4139 15.352 83.7099 15.152 83.9659 14.88C84.2379 14.608 84.4459 14.264 84.5899 13.848C84.7499 13.432 84.8299 12.944 84.8299 12.384Z" fill="#773FFF"/>
</svg>
